<?xml version="1.0" encoding="UTF-8"?>
<svg width="448px" height="512px" viewBox="0 0 448 512" version="1.1" xmlns="http://www.w3.org/2000/svg" xmlns:xlink="http://www.w3.org/1999/xlink">
    <!-- Generator: Sketch 51.3 (57544) - http://www.bohemiancoding.com/sketch -->
    <title>new_file</title>
    <desc>Created with Sketch.</desc>
    <defs></defs>
    <g id="Page-1" stroke="none" stroke-width="1" fill="none" fill-rule="evenodd">
        <g id="new_file" fill="#FFFFFF">
            <g id="Shape">
                <path d="M433.94,65.94 L382.06,14.06 C373.058714,5.05811687 360.850163,0.000596994089 348.12,0 L176,0 C149.490332,-1.623249e-15 128,21.490332 128,48 L128,96 L48,96 C21.490332,96 3.24649801e-15,117.490332 0,144 L0,464 C3.24649801e-15,490.509668 21.490332,512 48,512 L272,512 C298.509668,512 320,490.509668 320,464 L320,416 L400,416 C426.509668,416 448,394.509668 448,368 L448,99.88 C447.999403,87.149837 442.941883,74.9412861 433.94,65.94 Z M352,32.49 C354.813535,33.1857383 357.383013,34.6382022 359.43,36.69 L411.31,88.57 C413.356927,90.6206898 414.808578,93.1887285 415.51,96 L352,96 L352,32.49 Z M288,464 C288,472.836556 280.836556,480 272,480 L48,480 C39.163444,480 32,472.836556 32,464 L32,144 C32,135.163444 39.163444,128 48,128 L128,128 L128,368 C128,394.509668 149.490332,416 176,416 L288,416 L288,464 Z M416,368 C416,376.836556 408.836556,384 400,384 L176,384 C167.163444,384 160,376.836556 160,368 L160,48 C160,39.163444 167.163444,32 176,32 L320,32 L320,104 C320.038445,117.238877 330.761123,127.961555 344,128 L416,128 L416,368 Z M314.67,182.67 C314.67,180.901006 313.96727,179.204465 312.716402,177.953598 C311.465535,176.70273 309.768994,176 308,176 L268,176 C264.316261,176 261.33,178.986261 261.33,182.67 L261.33,229.33 L214.67,229.33 C210.986261,229.33 208,232.316261 208,236 L208,276 C208,279.683739 210.986261,282.67 214.67,282.67 L261.33,282.67 L261.33,329.33 C261.33,333.013739 264.316261,336 268,336 L308,336 C309.768994,336 311.465535,335.29727 312.716402,334.046402 C313.96727,332.795535 314.67,331.098994 314.67,329.33 L314.67,282.67 L361.33,282.67 C363.098994,282.67 364.795535,281.96727 366.046402,280.716402 C367.29727,279.465535 368,277.768994 368,276 L368,236 C368,232.316261 365.013739,229.33 361.33,229.33 L314.67,229.33 L314.67,182.67 Z" fill-rule="nonzero"></path>
            </g>
        </g>
    </g>
</svg>